<svg version="1.0" xmlns="http://www.w3.org/2000/svg"
 width="64" height="64" viewBox="0 0 512.000000 512.000000"
 preserveAspectRatio="xMidYMid meet">

<g transform="translate(0.000000,512.000000) scale(0.100000,-0.100000)"
fill="#000000" stroke="none">
<path d="M3869 5046 c-185 -80 -309 -189 -397 -346 -41 -74 -89 -219 -105
-319 l-12 -81 -56 40 c-113 80 -408 210 -481 212 -35 1 -58 -18 -58 -48 0 -14
20 -59 44 -102 25 -42 48 -89 52 -104 l6 -28 -1334 -2 -1334 -3 -42 -28 c-23
-15 -52 -46 -64 -70 -23 -42 -23 -47 -26 -482 -3 -471 -1 -504 45 -564 45 -59
88 -71 256 -71 l147 0 0 -140 0 -140 -132 0 c-153 0 -195 -9 -244 -52 -72 -63
-69 -41 -69 -553 0 -253 3 -472 8 -488 4 -15 24 -45 43 -67 50 -56 105 -70
266 -70 l129 0 -3 -137 -3 -138 -155 -5 c-169 -5 -195 -13 -243 -70 -45 -53
-49 -101 -45 -570 l3 -435 27 -47 c21 -35 41 -53 81 -72 l53 -26 1901 2 1901
3 44 30 c25 18 52 49 66 75 l23 45 -3 471 -3 470 -24 36 c-13 19 -40 46 -59
59 -33 22 -46 24 -194 27 l-158 3 0 139 0 138 148 3 c139 4 150 6 194 31 25
16 57 45 70 65 22 37 23 46 28 322 l5 283 90 32 c189 68 342 164 488 305 114
111 183 207 226 320 162 421 96 744 -238 1155 -31 39 -168 185 -306 326 -353
361 -396 423 -403 580 -6 131 -25 142 -153 86z m34 -166 c7 -56 64 -172 123
-250 27 -36 150 -168 274 -295 402 -410 514 -559 592 -785 31 -90 32 -102 33
-245 0 -160 -13 -228 -72 -370 -97 -233 -371 -460 -677 -559 -142 -47 -238
-61 -411 -60 -192 1 -323 27 -490 97 -191 81 -406 248 -499 387 -49 74 -92
189 -111 295 -40 228 0 373 184 678 89 148 122 221 141 312 15 70 8 181 -15
244 -8 24 -14 45 -12 47 1 2 49 -19 106 -47 121 -57 214 -121 268 -183 48 -55
72 -63 106 -35 22 17 27 28 27 67 0 72 18 202 40 288 30 117 84 216 166 303
64 68 179 151 210 151 6 0 14 -18 17 -40z m-3113 -1220 l0 -100 -100 0 -100 0
0 100 0 100 100 0 100 0 0 -100z m700 0 l0 -100 -105 0 -105 0 0 100 0 100
105 0 105 0 0 -100z m1147 0 l-52 -100 -322 0 -323 0 0 100 0 100 374 0 374 0
-51 -100z m-76 -692 c15 -53 45 -129 77 -190 2 -5 -420 -8 -937 -8 l-941 0 0
135 0 135 891 -2 892 -3 18 -67z m-1771 -813 l0 -106 -102 3 -103 3 -3 103 -3
102 106 0 105 0 0 -105z m700 0 l0 -105 -105 0 -105 0 0 105 0 105 105 0 105
0 0 -105z m1939 75 c69 -16 143 -32 164 -35 l37 -6 0 -69 0 -70 -845 0 -845 0
0 105 0 105 681 0 682 0 126 -30z m161 -825 l0 -135 -1415 0 -1415 0 0 135 0
135 1415 0 1415 0 0 -135z m-2800 -755 l0 -100 -100 0 -100 0 0 100 0 100 100
0 100 0 0 -100z m690 0 l0 -100 -100 0 -100 0 0 100 0 100 100 0 100 0 0 -100z
m2150 0 l0 -100 -845 0 -845 0 0 100 0 100 845 0 845 0 0 -100z"/>
<path d="M3668 4030 c-330 -56 -596 -309 -662 -632 -98 -476 247 -930 734
-964 249 -18 504 91 666 285 68 81 147 240 169 341 22 98 22 253 0 350 -19 84
-76 214 -125 285 -167 243 -494 383 -782 335z m292 -136 c30 -8 93 -33 140
-56 120 -58 240 -179 299 -300 95 -197 95 -409 0 -606 -59 -121 -179 -242
-299 -301 -114 -55 -194 -74 -310 -74 -186 0 -342 65 -476 198 -66 66 -89 97
-127 175 -101 208 -102 402 0 610 118 241 382 393 648 373 39 -3 95 -12 125
-19z"/>
<path d="M4027 3752 c-10 -10 -17 -30 -17 -44 l0 -26 -61 25 c-267 108 -579
-54 -654 -338 -27 -102 -15 -242 29 -326 14 -28 22 -33 51 -33 26 0 39 6 50
24 15 23 15 30 -4 91 -64 207 37 407 239 475 77 26 178 24 250 -6 45 -18 45
-19 16 -24 -42 -7 -70 -48 -57 -83 14 -35 44 -41 133 -27 105 17 138 29 148
54 12 33 -25 227 -47 243 -24 18 -57 16 -76 -5z"/>
<path d="M4167 3346 c-9 -9 -16 -45 -20 -98 -3 -48 -14 -107 -26 -140 -26 -67
-94 -147 -157 -184 -75 -44 -187 -65 -252 -48 l-23 7 23 11 c12 6 29 23 37 37
13 24 13 29 -2 53 -12 18 -26 26 -46 26 -28 0 -176 -65 -207 -91 -23 -19 -16
-52 30 -153 50 -106 73 -124 122 -91 21 14 25 23 22 50 l-4 33 76 -5 c143 -10
270 37 376 139 72 69 117 148 140 244 21 90 15 191 -11 210 -24 18 -60 18 -78
0z"/>
</g>
</svg>
